<svg xmlns="http://www.w3.org/2000/svg" width="30" height="30" fill="none" stroke-width=".117" stroke-linejoin="round" xmlns:v="https://vecta.io/nano"><path d="M28.423 1.18L16.789 9.82l2.151-5.098 9.483-3.543z" fill="#e2761b" stroke="#e2761b"/><g fill="#e4761b" stroke="#e4761b"><path d="M1.565 1.18l11.54 8.723-2.046-5.18L1.565 1.18zm22.672 20.029l-3.098 4.747 6.63 1.824 1.906-6.466-5.437-.105zm-23.899.105l1.894 6.466 6.63-1.824-3.098-4.747-5.425.105z"/><path d="M8.487 13.188L6.64 15.982l6.583.292-.234-7.074-4.502 3.987zm13.014 0l-4.56-4.069-.152 7.156 6.571-.292-1.859-2.795zM8.861 25.956l3.952-1.929-3.414-2.666-.538 4.595zm8.314-1.929l3.964 1.929-.55-4.595-3.414 2.666z"/></g><path d="M21.139 25.956l-3.964-1.929.316 2.584-.035 1.087 3.683-1.742zm-12.278 0l3.683 1.742-.023-1.087.292-2.584-3.952 1.929z" fill="#d7c1b3" stroke="#d7c1b3"/><path d="M12.603 19.654l-3.297-.971 2.327-1.064.97 2.035zm4.782 0l.97-2.035 2.339 1.064-3.309.971z" fill="#233447" stroke="#233447"/><path d="M8.861 25.956l.561-4.747-3.66.105 3.098 4.642zm11.716-4.747l.561 4.747 3.098-4.642-3.66-.105zm2.783-5.227l-6.571.292.608 3.379.971-2.035 2.338 1.064 2.654-2.701zM9.305 18.683l2.339-1.064.959 2.035.62-3.379-6.583-.292 2.666 2.701z" fill="#cd6116" stroke="#cd6116"/><path d="M6.64 15.982l2.759 5.379-.094-2.678-2.666-2.701zm14.066 2.701l-.117 2.678 2.771-5.379-2.654 2.701zm-7.483-2.408l-.62 3.379.772 3.987.175-5.25-.327-2.116zm3.566 0l-.316 2.105.14 5.262.783-3.987-.608-3.379z" fill="#e4751f" stroke="#e4751f"/><path d="M17.397 19.654l-.783 3.987.561.386 3.414-2.666.117-2.678-3.309.971zm-8.091-.971l.094 2.678 3.414 2.666.561-.386-.772-3.987-3.297-.971z" fill="#f6851b" stroke="#f6851b"/><path d="M17.455 27.698l.035-1.087-.292-.257H12.79l-.269.257.023 1.087-3.683-1.742 1.286 1.052 2.607 1.812h4.478l2.619-1.812 1.286-1.052-3.683 1.742z" fill="#c0ad9e" stroke="#c0ad9e"/><path d="M17.175 24.027l-.561-.386h-3.239l-.561.386-.292 2.584.269-.257h4.408l.292.257-.316-2.584z" fill="#161616" stroke="#161616"/><path d="M28.914 10.382l.994-4.771-1.485-4.431-11.248 8.348 4.326 3.66 6.115 1.789 1.356-1.578-.585-.421.935-.854-.725-.561.935-.713-.62-.468zM.092 5.611l.994 4.771-.631.468.935.713-.713.561.935.854-.585.421 1.345 1.579 6.115-1.789 4.326-3.66L1.565 1.18.092 5.611z" fill="#763d16" stroke="#763d16"/><path d="M27.616 14.977l-6.115-1.789 1.859 2.794-2.771 5.379 3.648-.047h5.437l-2.058-6.337zM8.487 13.188l-6.115 1.789-2.034 6.337h5.425l3.636.047-2.759-5.379 1.847-2.794zm8.302 3.087l.386-6.747 1.777-4.806H11.06l1.754 4.806.409 6.747.14 2.128.012 5.238h3.239l.023-5.238.152-2.128z" fill="#f6851b" stroke="#f6851b"/></svg>