<svg xmlns="http://www.w3.org/2000/svg" viewBox="0 0 163 45"><path d="M0 43.68h2.76V23.64h15.72V21.3H2.76V7.14h17.22v-2.4H0Zm29.34-13.5h17.28l5.64 13.5h3.06L38.88 4.5h-1.62L20.94 43.68h2.82Zm8.58-21.24c.28.8.88 2.32 1.8 4.56l5.94 14.34H30.3l6-14.4c.48-1.2 1.02-2.7 1.62-4.5Zm25.32 34.74H66V15.66c0-2.96-.04-4.84-.12-5.64l3.3 4.02 26.04 29.88h1.32V4.74h-2.76v28.2c0 2.8.04 4.68.12 5.64-.04-.04-.45-.57-1.23-1.59s-1.63-2.05-2.55-3.09L64.56 4.5h-1.32ZM108.6 12.6c0 2.68 1.02 5.04 3.06 7.08 2.8 2.69 3.31 2.93 7.05 5.52 2.02 1.4 3.63 2.7 4.83 3.9 1.72 1.68 2.58 3.52 2.58 5.52 0 5.12-4.22 7.32-9.66 7.32-3.04 0-5.92-.92-8.64-2.76l-1.44 2.1c2.68 2.08 6.01 3.12 9.99 3.12 7.37 0 12.63-2.99 12.63-10.08 0-2.56-.98-4.82-2.94-6.78-2.79-2.69-3.17-2.86-6.93-5.43-2.02-1.38-3.67-2.69-4.95-3.93-1.8-1.72-2.7-3.66-2.7-5.82 0-3.95 3.26-5.94 7.32-5.94 3.24 0 6.1.6 8.58 1.8L128.4 6c-2.68-1.32-5.7-1.98-9.06-1.98-6.12 0-10.74 2.76-10.74 8.58Zm48.6-4.02c0 2.36-1.24 4.61-3.72 6.75-2.48 2.14-5.18 3.29-8.1 3.45v2.04h.36c1.96 0 3.96.34 6 1.02 3.58 1.19 7.74 4.29 7.74 8.88 0 6.94-5.41 11.22-12.6 11.22-3.84 0-7.12-.7-9.84-2.1l-.96 2.22c3.36 1.68 7.14 2.52 11.34 2.52 8.13 0 15.18-5.81 15.18-13.86 0-6.47-4.88-9.96-10.2-11.4 3.66-1.97 7.86-5.77 7.86-11.04 0-5.37-5.48-8.28-11.25-8.28-3.34 0-6.97.74-10.89 2.22l.66 2.22c3.44-1.2 6.62-1.8 9.54-1.8 4.79 0 8.88 1.69 8.88 5.94Z"/></svg>