<?xml version="1.0" standalone="no"?>
<!DOCTYPE svg PUBLIC "-//W3C//DTD SVG 20010904//EN"
 "http://www.w3.org/TR/2001/REC-SVG-20010904/DTD/svg10.dtd">
<svg version="1.0" xmlns="http://www.w3.org/2000/svg"
 width="2608.000000pt" height="2608.000000pt" viewBox="0 0 2608.000000 2608.000000"
 preserveAspectRatio="xMidYMid meet">
<g transform="translate(0.000000,2608.000000) scale(0.100000,-0.100000)"
fill="#000000" stroke="none">
<path d="M23587 16634 c-2 -2 -33 -6 -69 -9 -62 -4 -195 -19 -263 -30 -16 -3
-46 -7 -65 -9 -19 -3 -36 -6 -37 -7 -4 -2 -12 -4 -68 -14 -27 -4 -54 -9 -60
-11 -5 -1 -26 -4 -45 -8 -19 -3 -53 -11 -75 -16 -22 -6 -52 -13 -66 -16 -15
-3 -84 -21 -155 -40 -71 -19 -136 -37 -144 -39 -8 -2 -17 -4 -20 -6 -3 -1 -9
-3 -15 -4 -5 -1 -17 -5 -25 -8 -8 -3 -64 -22 -125 -42 -60 -19 -117 -38 -125
-42 -8 -3 -19 -7 -25 -9 -97 -30 -104 -35 -98 -67 4 -17 12 -42 19 -56 7 -13
11 -28 8 -33 -3 -5 -1 -14 4 -21 6 -7 13 -24 15 -37 2 -14 6 -32 10 -40 3 -8
13 -42 23 -75 9 -33 18 -61 19 -63 1 -1 22 5 46 13 57 21 298 95 323 101 10 2
33 8 50 13 17 6 42 12 56 15 14 2 53 11 88 20 82 22 289 64 349 71 27 4 55 8
63 10 8 2 42 7 75 10 33 4 71 9 85 11 130 23 604 23 745 0 17 -3 48 -7 70 -10
75 -11 110 -18 185 -38 41 -11 82 -21 90 -23 43 -9 174 -63 247 -101 250 -131
405 -325 457 -574 15 -74 17 -309 2 -370 -3 -14 -8 -34 -10 -45 -3 -11 -9 -35
-15 -52 -5 -18 -8 -33 -5 -33 3 0 -1 -10 -8 -22 -7 -13 -13 -25 -13 -28 -11
-67 -158 -326 -224 -397 -12 -12 -21 -24 -21 -26 0 -14 -185 -204 -263 -270
-27 -23 -57 -49 -66 -58 -35 -35 -212 -160 -307 -216 -191 -114 -411 -207
-564 -238 -8 -2 -15 -4 -15 -5 0 -2 -11 -4 -111 -23 -71 -14 -184 -28 -236
-31 -16 0 -18 -15 -18 -163 0 -149 2 -163 18 -163 75 -1 282 -10 302 -14 14
-3 56 -7 94 -11 38 -3 72 -8 76 -10 3 -2 26 -6 51 -9 49 -6 55 -8 150 -30 36
-9 76 -18 90 -20 13 -2 25 -5 27 -7 1 -1 5 -2 10 -3 4 -1 34 -10 67 -20 33
-10 67 -19 75 -21 37 -7 224 -81 317 -126 161 -77 343 -193 467 -299 62 -53
226 -224 226 -237 0 -7 4 -13 9 -13 9 0 65 -79 103 -145 58 -99 128 -270 142
-348 2 -15 7 -35 10 -45 24 -81 26 -401 2 -518 -2 -12 -7 -38 -10 -59 -13 -78
-39 -181 -50 -194 -6 -8 -9 -15 -7 -15 2 -1 -4 -26 -14 -56 -11 -30 -20 -57
-20 -60 -20 -77 -162 -322 -247 -425 -43 -52 -203 -213 -248 -249 -76 -61
-219 -152 -327 -206 -97 -50 -254 -115 -303 -125 -8 -2 -27 -8 -43 -14 -15 -6
-38 -13 -50 -15 -12 -2 -49 -11 -82 -19 -53 -14 -110 -25 -170 -33 -11 -2 -33
-6 -50 -9 -153 -26 -722 -27 -863 -1 -16 4 -91 14 -142 20 -14 2 -41 6 -60 10
-19 3 -48 8 -65 11 -16 3 -52 10 -80 16 -27 5 -63 12 -78 14 -16 3 -33 7 -38
10 -5 4 -17 8 -27 10 -47 9 -218 59 -257 75 -11 4 -47 18 -80 31 -33 12 -65
26 -71 31 -6 4 -14 5 -17 1 -4 -3 -7 0 -7 7 0 7 -3 11 -6 8 -3 -3 -37 9 -75
28 -38 19 -73 34 -78 34 -5 0 -14 -15 -22 -32 -7 -18 -26 -62 -42 -98 -16 -36
-38 -87 -49 -115 -11 -27 -25 -59 -33 -71 -7 -11 -10 -25 -7 -30 9 -13 159
-84 177 -84 7 0 15 -4 17 -9 3 -9 60 -31 223 -86 44 -15 89 -32 100 -36 28
-12 196 -60 220 -64 11 -1 20 -3 20 -4 0 -2 7 -4 15 -6 8 -1 42 -8 75 -16 33
-7 65 -13 70 -15 37 -7 135 -26 160 -30 109 -16 124 -18 263 -33 56 -6 106
-10 110 -10 4 1 9 0 12 -1 25 -10 462 -14 560 -5 92 8 198 22 245 31 11 3 35
7 54 10 91 15 221 50 341 91 100 34 121 42 208 79 84 37 257 127 260 135 2 5
8 9 13 9 12 0 153 91 157 101 2 5 8 9 13 9 8 0 81 52 99 70 3 3 30 25 60 50
278 227 527 581 645 920 15 41 28 80 29 85 1 6 10 35 18 65 9 30 19 69 22 85
3 17 10 48 15 70 31 125 44 410 28 590 -4 44 -16 121 -26 170 -25 120 -25 119
-55 205 -14 41 -28 82 -30 91 -7 28 -98 204 -107 207 -5 2 -9 10 -9 17 0 8 -6
20 -12 27 -7 7 -19 24 -26 38 -23 43 -130 172 -215 258 -123 125 -345 290
-472 352 -16 8 -32 17 -35 20 -10 10 -176 89 -260 123 -47 19 -137 51 -200 72
-63 20 -128 41 -143 47 l-29 11 59 33 c32 18 70 39 86 46 15 7 27 16 27 20 0
4 5 8 10 8 6 0 35 18 65 40 30 22 59 40 65 40 5 0 10 4 10 8 0 4 12 15 28 24
15 9 38 26 52 37 14 12 52 43 85 68 120 94 321 303 420 438 16 22 31 42 34 45
4 3 13 16 21 30 8 14 36 61 62 105 88 147 176 379 203 535 3 19 8 46 11 60 2
14 6 52 9 85 2 33 6 72 8 88 3 15 1 27 -4 27 -4 0 -4 13 1 29 4 16 7 31 5 33
-1 2 -5 32 -9 68 -9 100 -25 178 -53 260 -27 77 -92 212 -105 218 -5 2 -8 8
-8 14 0 33 -198 254 -281 314 -23 16 -49 36 -58 44 -9 8 -29 21 -44 29 -15 8
-27 18 -27 23 0 4 -6 8 -14 8 -8 0 -21 6 -28 13 -25 23 -299 152 -347 162 -9
2 -45 13 -81 25 -36 12 -72 24 -80 25 -8 2 -15 4 -15 5 0 1 -9 3 -20 5 -22 4
-87 18 -95 20 -3 1 -25 5 -50 10 -25 5 -47 9 -50 10 -3 1 -34 5 -70 10 -36 4
-76 10 -90 12 -33 6 -527 12 -533 7z"/>
<path d="M18907 15994 c-1 -1 -33 -5 -72 -8 -38 -4 -86 -9 -105 -12 -19 -2
-51 -7 -70 -9 -19 -3 -57 -9 -85 -15 -27 -6 -61 -13 -75 -15 -14 -2 -63 -15
-110 -28 -264 -77 -481 -195 -642 -350 -68 -66 -151 -161 -157 -180 -2 -7 -10
-19 -17 -27 -51 -60 -140 -282 -169 -424 -33 -165 -38 -404 -10 -547 3 -13 10
-50 15 -81 10 -56 50 -191 68 -233 59 -134 154 -305 174 -313 4 -2 8 -8 8 -14
0 -5 17 -31 38 -56 20 -26 46 -58 57 -71 59 -74 374 -373 504 -477 13 -10 28
-23 35 -29 6 -5 29 -23 51 -40 22 -16 45 -33 50 -38 6 -4 51 -37 100 -72 50
-35 101 -72 115 -82 14 -11 81 -57 150 -104 69 -46 131 -90 138 -96 7 -7 33
-25 58 -39 24 -14 44 -29 44 -33 0 -4 11 -13 25 -19 38 -18 328 -234 445 -332
19 -16 46 -39 60 -51 118 -98 277 -251 352 -340 58 -69 138 -184 138 -199 0
-5 3 -10 8 -12 7 -3 72 -131 72 -143 0 -4 6 -21 14 -38 8 -18 24 -72 37 -122
30 -121 32 -362 5 -490 -16 -78 -49 -183 -71 -225 -8 -15 -11 -30 -8 -34 4 -3
1 -6 -5 -6 -7 0 -12 -5 -12 -11 0 -7 -24 -48 -54 -93 -52 -77 -110 -143 -187
-211 -46 -41 -159 -118 -159 -108 0 4 -4 3 -8 -4 -19 -31 -322 -151 -418 -167
-16 -2 -29 -5 -29 -6 0 -1 -8 -3 -17 -5 -9 -2 -38 -7 -65 -13 -26 -5 -55 -10
-63 -10 -8 0 -25 -3 -38 -6 -56 -13 -201 -21 -377 -21 -158 0 -310 7 -310 15
0 1 -13 3 -30 4 -16 2 -50 6 -75 10 -44 7 -61 11 -165 38 -27 7 -52 13 -55 13
-3 0 -11 4 -17 8 -7 5 -13 6 -13 3 0 -15 -295 100 -425 167 -99 51 -278 157
-286 170 -11 15 -23 3 -82 -85 -31 -46 -79 -116 -107 -156 -27 -40 -50 -78
-50 -85 0 -22 228 -171 360 -234 128 -61 200 -92 200 -86 0 3 6 1 13 -5 9 -8
143 -54 192 -66 6 -2 17 -6 25 -9 34 -13 193 -48 198 -43 2 3 12 1 21 -4 9 -4
55 -13 101 -20 47 -6 100 -13 119 -16 63 -9 235 -16 371 -17 136 0 380 12 391
18 3 3 37 7 75 10 38 4 71 8 75 10 3 2 28 7 55 10 27 4 57 9 66 11 10 3 30 7
45 10 47 8 204 52 283 79 41 14 81 28 88 30 7 3 15 4 18 4 4 0 10 3 13 8 3 5
32 20 64 33 32 12 73 32 90 44 18 12 52 32 77 45 99 54 268 199 345 296 22 28
42 52 45 55 42 42 153 256 190 367 30 92 62 231 75 328 6 43 17 211 16 240 -1
53 -11 195 -15 215 -2 14 -7 45 -10 69 -4 24 -9 47 -11 51 -2 4 -7 22 -10 40
-10 58 -66 214 -83 234 -10 10 -15 19 -13 20 10 3 -69 150 -114 211 -11 15
-40 55 -65 89 -43 59 -238 258 -352 361 -261 235 -312 273 -809 610 -79 54
-145 102 -147 107 -2 4 -8 8 -13 8 -5 0 -37 20 -72 45 -34 25 -73 53 -86 62
-74 53 -317 246 -370 292 -34 30 -78 68 -97 85 -123 105 -294 298 -351 394
-85 142 -137 271 -168 422 -16 80 -21 240 -10 336 22 195 100 362 236 502 52
55 209 171 209 155 0 -4 4 -3 8 2 14 20 194 96 262 110 8 2 15 4 15 5 0 2 6 3
90 20 59 11 74 13 165 24 48 6 343 7 425 1 98 -6 231 -20 293 -30 17 -3 44 -7
60 -9 177 -29 463 -106 586 -160 186 -81 196 -84 196 -67 0 9 100 229 120 263
6 10 10 23 10 30 0 6 7 20 16 29 16 17 15 19 -7 28 -13 5 -53 22 -89 38 -36
16 -85 38 -110 47 -25 10 -54 22 -65 27 -28 12 -174 58 -199 63 -12 2 -33 9
-48 15 -16 6 -28 8 -28 6 0 -2 -12 0 -27 6 -30 12 -128 34 -196 45 -49 7 -72
12 -72 14 0 1 -13 3 -30 5 -16 1 -46 5 -65 8 -40 7 -117 16 -205 23 -58 5
-483 12 -488 8z"/>
<path d="M6004 15919 c-2 -4 -15 -4 -29 -1 -14 2 -25 1 -24 -4 4 -14 -13 -64
-20 -64 -4 0 -8 -6 -8 -14 0 -8 -7 -29 -15 -47 -20 -43 -149 -351 -152 -364
-2 -5 -15 -36 -29 -69 -15 -32 -27 -60 -27 -63 0 -2 -25 -64 -56 -136 -216
-515 -321 -766 -323 -780 0 -4 -10 -24 -21 -44 -11 -21 -20 -41 -20 -46 0 -4
-8 -27 -19 -50 -10 -23 -40 -94 -66 -157 -26 -63 -51 -124 -55 -135 -5 -11
-18 -40 -28 -65 -11 -25 -52 -121 -90 -215 -39 -93 -78 -187 -86 -207 -9 -21
-17 -41 -17 -45 0 -5 -7 -19 -15 -33 -7 -14 -22 -47 -33 -75 -10 -27 -39 -99
-65 -160 -25 -60 -46 -115 -46 -121 0 -7 -4 -14 -8 -16 -4 -1 -23 -43 -42 -93
-19 -49 -38 -91 -42 -93 -4 -2 -8 -9 -8 -15 0 -10 -72 -190 -125 -312 -7 -16
-36 -86 -65 -155 -106 -256 -123 -296 -142 -340 -11 -25 -21 -49 -23 -55 -1
-5 -11 -30 -22 -55 -11 -25 -46 -108 -78 -185 -32 -77 -82 -198 -112 -270 -30
-71 -75 -179 -100 -240 -60 -146 -58 -141 -87 -208 -14 -32 -26 -60 -26 -63 0
-3 -7 -20 -14 -37 -37 -80 -166 -396 -166 -406 0 -6 -4 -11 -10 -11 -5 0 -10
-6 -10 -14 0 -11 -70 -186 -100 -251 -5 -11 -32 -76 -60 -145 -147 -357 -138
-333 -136 -340 0 -3 -7 -16 -17 -30 -9 -13 -17 -28 -17 -32 0 -5 102 -7 227
-6 l226 3 39 95 c22 52 88 212 147 355 114 276 119 287 118 295 -1 3 6 19 16
35 9 17 44 98 78 180 34 83 67 164 74 180 7 17 23 55 35 85 12 30 30 73 40 95
16 38 31 75 35 85 5 15 19 49 30 75 7 17 30 71 50 120 20 50 40 99 45 110 5
11 32 76 60 145 28 69 55 134 60 145 8 17 16 35 35 85 1 3 8 20 16 37 l13 33
1382 2 1381 3 18 -45 c10 -25 26 -63 36 -85 10 -22 34 -78 53 -125 19 -47 43
-103 52 -125 10 -22 18 -42 19 -45 1 -3 8 -18 15 -35 7 -16 14 -34 16 -40 2
-10 33 -84 59 -140 12 -25 19 -44 30 -75 1 -3 10 -23 19 -45 10 -22 33 -78 53
-125 19 -47 41 -98 48 -115 7 -16 41 -97 75 -180 34 -82 71 -169 81 -192 10
-24 19 -45 19 -48 0 -5 20 -52 56 -130 7 -16 41 -97 75 -180 34 -82 68 -166
76 -185 8 -19 19 -44 23 -55 7 -19 19 -45 54 -127 8 -18 16 -41 20 -50 5 -17
26 -18 251 -18 135 0 245 1 245 3 0 2 -15 39 -34 83 -18 43 -50 120 -71 169
-20 50 -48 114 -61 143 -13 29 -24 55 -24 57 0 6 -71 174 -106 253 -13 29 -24
54 -24 56 0 2 -8 21 -17 42 -9 22 -17 44 -19 49 -1 6 -13 35 -27 65 -13 30
-71 165 -127 300 -56 135 -110 264 -121 288 -11 24 -33 78 -50 120 -16 42 -36
91 -44 107 -26 56 -55 125 -55 130 0 2 -11 28 -24 57 -13 29 -40 94 -60 143
-21 50 -43 104 -50 120 -8 17 -37 86 -66 155 -28 69 -61 145 -72 170 -11 25
-21 50 -22 55 -1 6 -4 15 -8 20 -3 6 -27 62 -53 125 -26 63 -55 133 -65 155
-10 22 -35 81 -55 130 -20 50 -44 106 -52 125 -55 129 -66 155 -68 160 -1 3
-9 22 -18 44 -9 21 -17 40 -17 43 0 2 -8 23 -19 46 -49 111 -91 214 -91 225 0
7 -4 12 -8 12 -5 0 -14 17 -20 39 -7 21 -22 61 -34 87 -12 27 -23 51 -23 54
-1 3 -7 16 -13 30 -6 14 -35 81 -63 150 -28 69 -57 139 -64 155 -18 40 -85
200 -130 310 -21 50 -46 108 -56 131 -10 22 -27 65 -39 94 -12 29 -30 73 -41
96 -10 24 -19 45 -19 47 0 3 -10 26 -22 53 -12 27 -23 51 -23 54 -1 3 -9 23
-19 45 -9 22 -31 74 -48 115 -16 41 -38 93 -48 115 -27 61 -84 199 -85 205 0
3 -5 14 -11 25 -6 11 -21 47 -34 80 -13 33 -27 64 -32 70 -4 5 -8 17 -8 27 0
10 -4 18 -10 18 -6 0 -9 3 -9 8 1 4 0 10 -1 15 -1 4 -3 10 -4 15 -1 4 -12 30
-25 57 -12 28 -24 55 -25 60 -1 6 -4 15 -8 20 -4 6 -20 44 -36 85 -17 41 -38
93 -48 115 -10 22 -18 42 -19 45 0 3 -11 27 -23 54 -12 27 -22 50 -22 53 0 2
-9 24 -20 49 -15 32 -26 44 -43 45 -128 4 -190 3 -193 -2z m90 -776 c9 -27 18
-52 19 -58 4 -12 64 -169 82 -210 7 -16 24 -59 38 -95 50 -125 119 -295 138
-337 10 -24 19 -45 19 -48 0 -3 25 -65 56 -137 30 -73 67 -160 80 -193 14 -33
29 -69 34 -80 5 -11 26 -60 46 -110 20 -49 45 -109 55 -132 10 -23 19 -48 19
-55 0 -8 4 -18 9 -23 5 -6 19 -35 31 -65 12 -30 27 -66 33 -80 6 -14 11 -27
12 -30 6 -16 20 -50 36 -85 10 -22 21 -52 24 -67 4 -16 11 -28 16 -28 5 0 9
-7 9 -15 0 -8 14 -47 31 -87 17 -40 35 -82 39 -93 4 -11 15 -36 23 -55 8 -19
59 -141 112 -270 53 -129 103 -248 110 -265 7 -16 23 -55 35 -85 12 -30 28
-68 35 -85 39 -87 65 -158 60 -163 -12 -12 -2445 -8 -2445 4 0 5 4 14 9 20 4
5 20 41 35 79 15 39 32 76 38 83 6 6 8 12 5 12 -3 0 11 39 32 88 39 89 53 123
56 132 4 12 19 48 36 87 11 23 19 44 19 46 0 3 10 26 22 53 12 27 23 51 23 54
1 3 6 16 12 30 6 14 45 108 88 210 42 102 84 201 92 220 9 19 17 40 19 45 3
12 109 265 130 312 8 17 14 36 14 42 0 6 5 11 12 11 6 0 9 3 6 6 -5 5 24 80
95 244 5 14 11 27 12 30 1 3 9 22 18 44 9 21 17 40 17 41 0 1 7 19 15 39 8 20
14 37 13 38 -1 2 5 17 15 33 21 38 105 242 169 410 27 72 52 137 55 145 3 8 7
17 7 20 1 3 6 19 13 35 13 35 46 127 98 278 20 59 41 107 45 107 4 0 15 -21
24 -47z"/>
<path d="M10145 15922 l-30 -3 2 -3127 c1 -1720 2 -3130 2 -3134 1 -5 100 -8
220 -8 183 0 220 2 224 15 4 8 2 17 -4 20 -5 4 -7 11 -3 16 3 5 5 33 5 62 -1
29 -1 60 -1 70 0 9 0 64 1 121 1 58 -1 109 -5 114 -3 5 -2 23 3 39 5 17 5 36
1 43 -5 7 -5 23 0 34 4 12 4 30 0 42 -5 11 -5 27 0 34 4 7 4 26 0 41 -5 16 -6
29 -2 29 4 0 7 49 7 110 0 60 -3 110 -7 110 -4 0 -5 6 -2 14 8 21 10 106 2
106 -4 0 -5 6 -2 14 8 20 10 106 3 106 -4 0 -4 15 0 33 4 17 4 47 0 65 -3 17
-4 32 0 32 7 0 5 84 -2 105 -3 7 -2 27 2 43 5 16 5 35 1 42 -5 7 -5 23 0 34 4
12 4 30 0 42 -5 11 -5 27 0 34 4 7 4 26 0 41 -5 16 -6 29 -2 29 8 0 7 194 -2
215 -3 8 -2 15 2 15 4 0 6 24 4 52 -2 29 -3 59 -3 66 1 12 1 88 1 117 -1 8 0
62 1 119 1 58 -1 109 -5 114 -3 5 -2 23 3 39 5 17 5 36 1 43 -5 7 -5 23 0 34
4 12 4 30 0 42 -5 11 -5 27 0 34 4 7 4 26 0 41 -5 16 -6 29 -2 29 4 0 7 49 7
110 0 60 -3 110 -7 110 -4 0 -5 6 -2 14 8 21 10 106 2 106 -4 0 -5 6 -2 14 8
20 10 106 3 106 -4 0 -4 15 0 33 4 17 4 47 0 65 -3 17 -4 32 0 32 7 0 5 84 -2
105 -3 7 -2 27 2 43 5 16 5 35 1 42 -5 7 -5 23 0 34 4 12 4 30 0 42 -5 11 -5
27 0 34 4 7 4 26 0 41 -5 16 -6 29 -2 29 8 0 7 194 -2 215 -3 8 -2 15 2 15 4
0 6 24 4 52 -2 29 -3 59 -3 66 1 12 1 88 1 117 -1 8 -1 62 -1 120 0 58 0 113
-1 123 0 9 0 28 1 42 1 14 1 33 1 43 0 9 0 28 0 42 0 14 0 33 0 43 0 9 1 63 2
119 2 57 1 103 -2 103 -5 0 -5 52 0 75 1 6 1 13 0 18 -5 18 -3 74 3 84 4 6 4
13 0 16 -3 4 -7 100 -9 215 -2 115 -5 233 -8 263 l-5 53 22 -24 c12 -14 34
-41 48 -60 15 -19 37 -46 49 -60 12 -14 34 -41 49 -60 14 -19 31 -39 37 -45 6
-5 33 -37 60 -70 27 -33 52 -61 57 -63 4 -2 7 -8 7 -13 0 -5 8 -18 18 -29 45
-51 62 -70 122 -145 35 -44 67 -82 70 -85 3 -3 34 -39 70 -80 36 -41 67 -77
70 -80 3 -3 34 -39 70 -80 35 -41 71 -82 80 -91 8 -9 26 -29 39 -45 27 -33
143 -166 151 -174 3 -3 34 -39 70 -80 36 -41 70 -80 75 -86 9 -10 59 -68 112
-131 11 -12 44 -49 74 -83 30 -34 59 -67 64 -74 6 -6 39 -45 75 -86 36 -41 74
-84 85 -96 11 -11 29 -32 40 -46 27 -34 104 -124 135 -157 14 -15 50 -56 80
-91 30 -34 60 -68 65 -74 6 -6 35 -40 65 -76 30 -35 60 -69 65 -76 11 -12 111
-125 145 -164 12 -14 41 -47 64 -74 22 -27 46 -54 52 -60 5 -6 59 -67 119
-136 60 -69 114 -130 120 -136 5 -6 30 -35 55 -64 25 -29 50 -58 55 -64 6 -6
39 -45 75 -86 88 -101 121 -139 149 -169 12 -14 39 -46 60 -70 20 -24 41 -49
46 -55 6 -6 42 -47 80 -91 65 -74 99 -114 150 -171 11 -12 39 -44 62 -72 24
-27 55 -63 70 -80 16 -16 37 -41 48 -54 18 -22 112 -131 140 -162 6 -6 35 -40
65 -76 30 -35 62 -71 71 -80 9 -8 38 -42 65 -74 27 -33 65 -76 84 -96 19 -21
49 -55 67 -76 17 -22 46 -55 65 -75 18 -20 44 -50 58 -66 40 -48 133 -155 153
-175 9 -10 17 -20 17 -23 0 -2 12 -17 28 -33 15 -15 50 -54 77 -87 28 -32 59
-68 70 -79 11 -12 41 -46 67 -76 26 -30 59 -68 73 -85 15 -16 36 -41 48 -55
64 -74 153 -176 162 -186 7 -7 50 -11 115 -10 l105 1 1 3133 0 3132 -20 1
c-82 3 -407 0 -413 -4 -10 -6 -9 -5020 1 -5247 7 -172 11 -166 -54 -80 -33 44
-178 231 -193 250 -7 8 -50 62 -97 120 -96 119 -125 154 -157 187 -13 13 -23
26 -23 28 0 2 -10 15 -22 28 -13 13 -48 52 -78 87 -30 35 -62 70 -70 80 -8 9
-37 43 -65 75 -27 33 -57 67 -65 76 -8 9 -37 42 -65 74 -27 32 -55 63 -60 69
-6 6 -41 47 -79 91 -38 44 -94 109 -126 145 -32 36 -92 106 -135 155 -124 143
-189 217 -207 237 -10 10 -18 23 -18 28 0 6 -4 10 -8 10 -5 0 -40 37 -78 81
-38 45 -74 87 -79 93 -6 6 -35 40 -65 76 -30 36 -60 69 -66 75 -5 5 -39 44
-75 85 -35 41 -68 80 -74 86 -5 6 -32 37 -60 69 -27 32 -59 68 -70 79 -11 12
-42 48 -70 81 -27 33 -52 62 -55 65 -3 3 -30 34 -60 69 -30 35 -64 74 -75 86
-11 11 -45 50 -75 85 -30 35 -64 74 -75 86 -11 12 -38 43 -60 70 -22 27 -47
55 -55 64 -8 9 -42 47 -75 85 -33 39 -62 72 -65 75 -3 3 -32 36 -65 75 -33 38
-64 75 -70 81 -5 6 -32 37 -60 69 -78 90 -78 90 -133 152 -28 32 -59 68 -69
79 -39 46 -112 130 -134 155 -13 14 -44 49 -69 78 -25 29 -49 58 -55 64 -93
108 -141 163 -145 167 -3 3 -32 36 -65 75 -33 38 -69 79 -80 91 -11 12 -40 45
-64 74 -56 66 -94 110 -151 175 -25 28 -70 80 -100 115 -30 35 -65 75 -78 88
-12 14 -41 48 -65 75 -23 28 -47 55 -52 61 -6 6 -37 42 -70 81 -33 38 -69 79
-80 91 -11 12 -39 43 -61 70 -23 27 -52 61 -65 76 -80 89 -131 148 -160 184
-31 38 -83 62 -94 44 -2 -4 -26 -4 -52 -1 -26 3 -61 5 -78 3z"/>
<path d="M0 12768 l0 -3118 220 0 c169 0 220 3 221 13 0 6 1 728 1 1603 l1
1591 1247 0 c686 0 1251 3 1257 6 7 4 10 51 9 127 -1 66 2 120 6 120 4 0 4 10
0 23 -4 12 -7 39 -7 60 1 20 -3 37 -9 38 -6 0 -570 1 -1254 1 l-1242 1 -5 21
c-2 11 -3 521 -3 1132 l1 1111 1376 0 1376 0 1 191 c0 188 0 192 -20 193 -12
0 -731 1 -1598 2 l-1578 2 0 -3117z"/>
</g>
</svg>
